<?xml version="1.0" encoding="UTF-8"?>
<svg width="222px" height="102px" viewBox="0 0 222 102" version="1.1" xmlns="http://www.w3.org/2000/svg" xmlns:xlink="http://www.w3.org/1999/xlink">
    <!-- Generator: Sketch 49 (51002) - http://www.bohemiancoding.com/sketch -->
    <title>Logo</title>
    <desc>Created with Sketch.</desc>
    <defs></defs>
    <g id="Landing-Page" stroke="none" stroke-width="1" fill="none" fill-rule="evenodd">
        <g id="FactoryLanding" transform="translate(-1013.000000, -99.000000)">
            <g id="Logo" transform="translate(1013.000000, 99.000000)">
                <g id="DNA">
                    <g id="science-(2)" fill="#002F6C" fill-rule="nonzero">
                        <path d="M51.0243024,99.8103873 C51.0243024,85.1865574 39.8848905,68.0486108 27.8444982,53.2375563 C15.1670681,37.6429086 0.482892929,20.9078574 0.482892929,2.43185444 C0.482892929,-0.434480519 4.20235691,-0.434268966 4.20235691,2.43185444 C4.20235691,17.0556843 18.4820207,36.350394 30.5224131,51.1614485 C43.1996434,66.7560962 54.2401255,81.3341728 54.2401255,99.8103873 C54.2399257,102.676511 51.0243024,102.676511 51.0243024,99.8103873 Z" id="Shape" transform="translate(27.361509, 51.121081) scale(-1, 1) translate(-27.361509, -51.121081) "></path>
                        <path d="M52.206498,99.8103873 C52.206498,85.1865574 41.8549247,69.8626051 29.8145324,55.0515507 C23.2418442,46.9664139 16.3153813,38.634101 10.9556441,30.5760891 C5.97749641,23.091772 1.0500637,11.3581894 1.0500637,2.46117875 C1.0500637,-0.405156209 5.14105775,-0.404944656 5.14105775,2.46117875 C5.14105775,17.0850086 19.6642164,36.350394 31.7046087,51.1614485 C44.381839,66.7560962 55.4223211,81.3341728 55.4223211,99.8103873 C55.4221214,102.676511 52.206498,102.676511 52.206498,99.8103873 Z" id="Shape"></path>
                    </g>
                    <g id="TopPairs" transform="translate(5.000000, 5.000000)" stroke="#002F6C">
                        <g id="BasePair" transform="translate(27.500000, 3.000000) scale(-1, 1) translate(-27.500000, -3.000000) translate(9.000000, 0.000000)">
                            <path d="M0.189126712,2.70338983 L30.1572077,2.70338983" id="Line" stroke-width="3" stroke-linecap="square"></path>
                            <ellipse id="Oval" stroke-width="2" cx="33.4794521" cy="2.70338983" rx="2.57534247" ry="2.70338983"></ellipse>
                        </g>
                        <g id="BasePair-Copy" transform="translate(0.000000, 6.758475)">
                            <path d="M0.5,2.70338983 L29.1572077,2.70338983" id="Line" stroke-width="3" stroke-linecap="square"></path>
                            <ellipse id="Oval" stroke-width="2" cx="32.4794521" cy="2.70338983" rx="2.57534247" ry="2.70338983"></ellipse>
                        </g>
                        <g id="BasePair-Copy" transform="translate(6.150685, 20.275424)">
                            <path d="M0.342518517,2.70338983 L17.2120022,2.70338983" id="Line" stroke-width="3" stroke-linecap="square"></path>
                            <ellipse id="Oval" stroke-width="2" cx="20.5342466" cy="2.70338983" rx="2.57534247" ry="2.70338983"></ellipse>
                        </g>
                        <g id="BasePair" transform="translate(28.136986, 16.516949) scale(-1, 1) translate(-28.136986, -16.516949) translate(14.136986, 13.516949)">
                            <path d="M0.321917808,2.70338983 L21.7873446,2.70338983" id="Line" stroke-width="3" stroke-linecap="square"></path>
                            <ellipse id="Oval" stroke-width="2" cx="25.109589" cy="2.70338983" rx="2.57534247" ry="2.70338983"></ellipse>
                        </g>
                        <g id="BasePair" transform="translate(24.979452, 31.033898) scale(-1, 1) translate(-24.979452, -31.033898) translate(17.479452, 28.033898)">
                            <path d="M0.321917808,2.70338983 L8.2667967,2.70338983" id="Line" stroke-width="3" stroke-linecap="square"></path>
                            <ellipse id="Oval" stroke-width="2" cx="11.5890411" cy="2.70338983" rx="2.57534247" ry="2.70338983"></ellipse>
                        </g>
                    </g>
                    <g id="TopPairs-Copy" transform="translate(28.000000, 78.500000) scale(1, -1) translate(-28.000000, -78.500000) translate(5.000000, 61.000000)" stroke="#002F6C">
                        <g id="BasePair" transform="translate(27.500000, 3.000000) scale(-1, 1) translate(-27.500000, -3.000000) translate(9.000000, 0.000000)">
                            <path d="M0.189126712,2.70338983 L30.1572077,2.70338983" id="Line" stroke-width="3" stroke-linecap="square"></path>
                            <ellipse id="Oval" stroke-width="2" cx="33.4794521" cy="2.70338983" rx="2.57534247" ry="2.70338983"></ellipse>
                        </g>
                        <g id="BasePair-Copy" transform="translate(0.000000, 6.758475)">
                            <path d="M0.5,2.70338983 L29.1572077,2.70338983" id="Line" stroke-width="3" stroke-linecap="square"></path>
                            <ellipse id="Oval" stroke-width="2" cx="32.4794521" cy="2.70338983" rx="2.57534247" ry="2.70338983"></ellipse>
                        </g>
                        <g id="BasePair-Copy" transform="translate(6.150685, 20.275424)">
                            <path d="M0.342518517,2.70338983 L17.2120022,2.70338983" id="Line" stroke-width="3" stroke-linecap="square"></path>
                            <ellipse id="Oval" stroke-width="2" cx="20.5342466" cy="2.70338983" rx="2.57534247" ry="2.70338983"></ellipse>
                        </g>
                        <g id="BasePair" transform="translate(28.136986, 16.516949) scale(-1, 1) translate(-28.136986, -16.516949) translate(14.136986, 13.516949)">
                            <path d="M0.321917808,2.70338983 L21.7873446,2.70338983" id="Line" stroke-width="3" stroke-linecap="square"></path>
                            <ellipse id="Oval" stroke-width="2" cx="25.109589" cy="2.70338983" rx="2.57534247" ry="2.70338983"></ellipse>
                        </g>
                        <g id="BasePair" transform="translate(24.979452, 31.033898) scale(-1, 1) translate(-24.979452, -31.033898) translate(17.479452, 28.033898)">
                            <path d="M0.321917808,2.70338983 L8.2667967,2.70338983" id="Line" stroke-width="3" stroke-linecap="square"></path>
                            <ellipse id="Oval" stroke-width="2" cx="11.5890411" cy="2.70338983" rx="2.57534247" ry="2.70338983"></ellipse>
                        </g>
                    </g>
                </g>
                <path d="M59.92,63 L59.92,42.74 L61.96,42.74 C62.3466686,42.74 62.6133326,42.8133326 62.76,42.96 C62.9066674,43.1066674 63.0066664,43.3599982 63.06,43.72 L63.3,46.88 C63.9933368,45.4666596 64.8499949,44.3633373 65.87,43.57 C66.8900051,42.7766627 68.0866598,42.38 69.46,42.38 C70.0200028,42.38 70.5266644,42.4433327 70.98,42.57 C71.4333356,42.6966673 71.8533314,42.8733322 72.24,43.1 L71.78,45.76 C71.6866662,46.093335 71.4800016,46.26 71.16,46.26 C70.9733324,46.26 70.6866686,46.1966673 70.3,46.07 C69.9133314,45.9433327 69.3733368,45.88 68.68,45.88 C67.4399938,45.88 66.4033375,46.2399964 65.57,46.96 C64.7366625,47.6800036 64.0400028,48.7266598 63.48,50.1 L63.48,63 L59.92,63 Z M84.06,42.42 C85.2733394,42.42 86.3933282,42.6233313 87.42,43.03 C88.4466718,43.4366687 89.3333296,44.0233295 90.08,44.79 C90.8266704,45.5566705 91.4099979,46.5033277 91.83,47.63 C92.2500021,48.7566723 92.46,50.0399928 92.46,51.48 C92.46,52.0400028 92.4000006,52.4133324 92.28,52.6 C92.1599994,52.7866676 91.933335,52.88 91.6,52.88 L78.12,52.88 C78.1466668,54.1600064 78.3199984,55.2733286 78.64,56.22 C78.9600016,57.1666714 79.3999972,57.9566635 79.96,58.59 C80.5200028,59.2233365 81.1866628,59.6966651 81.96,60.01 C82.7333372,60.3233349 83.5999952,60.48 84.56,60.48 C85.4533378,60.48 86.2233301,60.3766677 86.87,60.17 C87.5166699,59.9633323 88.073331,59.7400012 88.54,59.5 C89.006669,59.2599988 89.3966651,59.0366677 89.71,58.83 C90.0233349,58.6233323 90.2933322,58.52 90.52,58.52 C90.8133348,58.52 91.0399992,58.6333322 91.2,58.86 L92.2,60.16 C91.7599978,60.693336 91.2333364,61.1566647 90.62,61.55 C90.0066636,61.9433353 89.3500035,62.2666654 88.65,62.52 C87.9499965,62.7733346 87.2266704,62.9633327 86.48,63.09 C85.7333296,63.2166673 84.993337,63.28 84.26,63.28 C82.859993,63.28 81.5700059,63.0433357 80.39,62.57 C79.2099941,62.0966643 78.1900043,61.4033379 77.33,60.49 C76.4699957,59.5766621 75.8000024,58.4466734 75.32,57.1 C74.8399976,55.7533266 74.6,54.2066754 74.6,52.46 C74.6,51.0466596 74.8166645,49.7266728 75.25,48.5 C75.6833355,47.2733272 76.3066626,46.2100045 77.12,45.31 C77.9333374,44.4099955 78.9266608,43.7033359 80.1,43.19 C81.2733392,42.6766641 82.593326,42.42 84.06,42.42 Z M84.14,45.04 C82.4199914,45.04 81.0666716,45.5366617 80.08,46.53 C79.0933284,47.5233383 78.4800012,48.8999912 78.24,50.66 L89.26,50.66 C89.26,49.8333292 89.1466678,49.0766701 88.92,48.39 C88.6933322,47.7033299 88.3600022,47.1100025 87.92,46.61 C87.4799978,46.1099975 86.9433365,45.7233347 86.31,45.45 C85.6766635,45.1766653 84.9533374,45.04 84.14,45.04 Z M97.8,63 L97.8,45.78 L95.56,45.52 C95.2799986,45.453333 95.0500009,45.3500007 94.87,45.21 C94.6899991,45.0699993 94.6,44.866668 94.6,44.6 L94.6,43.14 L97.8,43.14 L97.8,42.02 C97.8,40.7799938 97.9933314,39.6433385 98.38,38.61 C98.7666686,37.5766615 99.3466628,36.6866704 100.12,35.94 C100.893337,35.1933296 101.856661,34.6133354 103.01,34.2 C104.163339,33.7866646 105.506659,33.58 107.04,33.58 C107.546669,33.58 108.063331,33.613333 108.59,33.68 C109.116669,33.746667 109.573331,33.846666 109.96,33.98 L109.84,35.84 C109.813333,36.0133342 109.733334,36.1233331 109.6,36.17 C109.466666,36.2166669 109.273335,36.24 109.02,36.24 C108.873333,36.24 108.720001,36.2366667 108.56,36.23 C108.399999,36.2233333 108.220001,36.22 108.02,36.22 C105.659988,36.22 103.943339,36.7099951 102.87,37.69 C101.796661,38.6700049 101.26,40.1466568 101.26,42.12 L101.26,43.14 L113.5,43.14 L113.5,63 L109.94,63 L109.94,45.72 L101.38,45.72 L101.38,63 L97.8,63 Z M119.8,63 L119.8,42.74 L121.92,42.74 C122.426669,42.74 122.746666,42.9866642 122.88,43.48 L123.16,45.68 C124.040004,44.7066618 125.023328,43.920003 126.11,43.32 C127.196672,42.719997 128.453326,42.42 129.88,42.42 C130.986672,42.42 131.963329,42.6033315 132.81,42.97 C133.656671,43.3366685 134.36333,43.8566633 134.93,44.53 C135.496669,45.2033367 135.926665,46.0133286 136.22,46.96 C136.513335,47.9066714 136.66,48.9533276 136.66,50.1 L136.66,63 L133.1,63 L133.1,50.1 C133.1,48.566659 132.750003,47.3766709 132.05,46.53 C131.349996,45.6833291 130.280007,45.26 128.84,45.26 C127.786661,45.26 126.803338,45.5133308 125.89,46.02 C124.976662,46.5266692 124.133337,47.213329 123.36,48.08 L123.36,63 L119.8,63 Z M150.06,42.42 C151.273339,42.42 152.393328,42.6233313 153.42,43.03 C154.446672,43.4366687 155.33333,44.0233295 156.08,44.79 C156.82667,45.5566705 157.409998,46.5033277 157.83,47.63 C158.250002,48.7566723 158.46,50.0399928 158.46,51.48 C158.46,52.0400028 158.400001,52.4133324 158.28,52.6 C158.159999,52.7866676 157.933335,52.88 157.6,52.88 L144.12,52.88 C144.146667,54.1600064 144.319998,55.2733286 144.64,56.22 C144.960002,57.1666714 145.399997,57.9566635 145.96,58.59 C146.520003,59.2233365 147.186663,59.6966651 147.96,60.01 C148.733337,60.3233349 149.599995,60.48 150.56,60.48 C151.453338,60.48 152.22333,60.3766677 152.87,60.17 C153.51667,59.9633323 154.073331,59.7400012 154.54,59.5 C155.006669,59.2599988 155.396665,59.0366677 155.71,58.83 C156.023335,58.6233323 156.293332,58.52 156.52,58.52 C156.813335,58.52 157.039999,58.6333322 157.2,58.86 L158.2,60.16 C157.759998,60.693336 157.233336,61.1566647 156.62,61.55 C156.006664,61.9433353 155.350004,62.2666654 154.65,62.52 C153.949996,62.7733346 153.22667,62.9633327 152.48,63.09 C151.73333,63.2166673 150.993337,63.28 150.26,63.28 C148.859993,63.28 147.570006,63.0433357 146.39,62.57 C145.209994,62.0966643 144.190004,61.4033379 143.33,60.49 C142.469996,59.5766621 141.800002,58.4466734 141.32,57.1 C140.839998,55.7533266 140.6,54.2066754 140.6,52.46 C140.6,51.0466596 140.816665,49.7266728 141.25,48.5 C141.683335,47.2733272 142.306663,46.2100045 143.12,45.31 C143.933337,44.4099955 144.926661,43.7033359 146.1,43.19 C147.273339,42.6766641 148.593326,42.42 150.06,42.42 Z M150.14,45.04 C148.419991,45.04 147.066672,45.5366617 146.08,46.53 C145.093328,47.5233383 144.480001,48.8999912 144.24,50.66 L155.26,50.66 C155.26,49.8333292 155.146668,49.0766701 154.92,48.39 C154.693332,47.7033299 154.360002,47.1100025 153.92,46.61 C153.479998,46.1099975 152.943336,45.7233347 152.31,45.45 C151.676664,45.1766653 150.953337,45.04 150.14,45.04 Z M161.84,60.8 C161.84,60.4533316 161.903333,60.1266682 162.03,59.82 C162.156667,59.5133318 162.329999,59.2466678 162.55,59.02 C162.770001,58.7933322 163.033332,58.613334 163.34,58.48 C163.646668,58.346666 163.973332,58.28 164.32,58.28 C164.666668,58.28 164.993332,58.346666 165.3,58.48 C165.606668,58.613334 165.873332,58.7933322 166.1,59.02 C166.326668,59.2466678 166.503333,59.5133318 166.63,59.82 C166.756667,60.1266682 166.82,60.4533316 166.82,60.8 C166.82,61.1600018 166.756667,61.4899985 166.63,61.79 C166.503333,62.0900015 166.326668,62.3533322 166.1,62.58 C165.873332,62.8066678 165.606668,62.9833327 165.3,63.11 C164.993332,63.2366673 164.666668,63.3 164.32,63.3 C163.973332,63.3 163.646668,63.2366673 163.34,63.11 C163.033332,62.9833327 162.770001,62.8066678 162.55,62.58 C162.329999,62.3533322 162.156667,62.0900015 162.03,61.79 C161.903333,61.4899985 161.84,61.1600018 161.84,60.8 Z M171.6,63 L171.6,33.54 L175.18,33.54 L175.18,45.66 C176.020004,44.6866618 176.983328,43.9033363 178.07,43.31 C179.156672,42.7166637 180.399993,42.42 181.8,42.42 C182.973339,42.42 184.033329,42.6399978 184.98,43.08 C185.926671,43.5200022 186.73333,44.1766623 187.4,45.05 C188.06667,45.9233377 188.579998,47.0033269 188.94,48.29 C189.300002,49.5766731 189.48,51.0599916 189.48,52.74 C189.48,54.2333408 189.280002,55.6233269 188.88,56.91 C188.479998,58.1966731 187.903337,59.3099953 187.15,60.25 C186.396663,61.1900047 185.476672,61.9299973 184.39,62.47 C183.303328,63.0100027 182.080007,63.28 180.72,63.28 C179.413327,63.28 178.303338,63.0266692 177.39,62.52 C176.476662,62.0133308 175.680003,61.3066712 175,60.4 L174.82,62.24 C174.713333,62.7466692 174.406669,63 173.9,63 L171.6,63 Z M180.64,45.26 C179.479994,45.26 178.463338,45.526664 177.59,46.06 C176.716662,46.593336 175.913337,47.3466618 175.18,48.32 L175.18,58.12 C175.820003,59.0000044 176.529996,59.6199982 177.31,59.98 C178.090004,60.3400018 178.959995,60.52 179.92,60.52 C181.813343,60.52 183.266662,59.8466734 184.28,58.5 C185.293338,57.1533266 185.8,55.2333458 185.8,52.74 C185.8,51.4199934 185.683335,50.2866714 185.45,49.34 C185.216666,48.3933286 184.880002,47.6166697 184.44,47.01 C183.999998,46.4033303 183.460003,45.9600014 182.82,45.68 C182.179997,45.3999986 181.453337,45.26 180.64,45.26 Z M197.8,42.74 L197.8,63 L194.24,63 L194.24,42.74 L197.8,42.74 Z M198.6,36.38 C198.6,36.7266684 198.530001,37.0499985 198.39,37.35 C198.249999,37.6500015 198.063334,37.9166655 197.83,38.15 C197.596665,38.3833345 197.326668,38.566666 197.02,38.7 C196.713332,38.833334 196.386668,38.9 196.04,38.9 C195.693332,38.9 195.370001,38.833334 195.07,38.7 C194.769998,38.566666 194.503334,38.3833345 194.27,38.15 C194.036665,37.9166655 193.853334,37.6500015 193.72,37.35 C193.586666,37.0499985 193.52,36.7266684 193.52,36.38 C193.52,36.0333316 193.586666,35.7033349 193.72,35.39 C193.853334,35.0766651 194.036665,34.8033345 194.27,34.57 C194.503334,34.3366655 194.769998,34.153334 195.07,34.02 C195.370001,33.886666 195.693332,33.82 196.04,33.82 C196.386668,33.82 196.713332,33.886666 197.02,34.02 C197.326668,34.153334 197.596665,34.3366655 197.83,34.57 C198.063334,34.8033345 198.249999,35.0766651 198.39,35.39 C198.530001,35.7033349 198.6,36.0333316 198.6,36.38 Z M212.28,42.42 C213.760007,42.42 215.096661,42.6666642 216.29,43.16 C217.483339,43.6533358 218.496663,44.3533288 219.33,45.26 C220.163338,46.1666712 220.803331,47.2633269 221.25,48.55 C221.696669,49.8366731 221.92,51.2733254 221.92,52.86 C221.92,54.460008 221.696669,55.8999936 221.25,57.18 C220.803331,58.4600064 220.163338,59.5533288 219.33,60.46 C218.496663,61.3666712 217.483339,62.0633309 216.29,62.55 C215.096661,63.0366691 213.760007,63.28 212.28,63.28 C210.799993,63.28 209.463339,63.0366691 208.27,62.55 C207.076661,62.0633309 206.060004,61.3666712 205.22,60.46 C204.379996,59.5533288 203.733336,58.4600064 203.28,57.18 C202.826664,55.8999936 202.6,54.460008 202.6,52.86 C202.6,51.2733254 202.826664,49.8366731 203.28,48.55 C203.733336,47.2633269 204.379996,46.1666712 205.22,45.26 C206.060004,44.3533288 207.076661,43.6533358 208.27,43.16 C209.463339,42.6666642 210.799993,42.42 212.28,42.42 Z M212.28,60.5 C214.28001,60.5 215.773328,59.8300067 216.76,58.49 C217.746672,57.1499933 218.24,55.280012 218.24,52.88 C218.24,50.4666546 217.746672,48.5866734 216.76,47.24 C215.773328,45.8933266 214.28001,45.22 212.28,45.22 C211.266662,45.22 210.38667,45.3933316 209.64,45.74 C208.89333,46.0866684 208.270003,46.5866634 207.77,47.24 C207.269998,47.8933366 206.896668,48.6966619 206.65,49.65 C206.403332,50.6033381 206.28,51.679994 206.28,52.88 C206.28,54.080006 206.403332,55.1533286 206.65,56.1 C206.896668,57.0466714 207.269998,57.8433301 207.77,58.49 C208.270003,59.1366699 208.89333,59.6333316 209.64,59.98 C210.38667,60.3266684 211.266662,60.5 212.28,60.5 Z" id="refine.bio" fill="#002F6C"></path>
            </g>
        </g>
    </g>
</svg>